<?xml version="1.0" encoding="iso-8859-1"?>
<!-- Generator: Adobe Illustrator 19.0.0, SVG Export Plug-In . SVG Version: 6.00 Build 0)  -->
<svg version="1.1" id="Layer_1" xmlns="http://www.w3.org/2000/svg" xmlns:xlink="http://www.w3.org/1999/xlink" x="0px" y="0px"
	 viewBox="0 0 512.001 512.001" style="enable-background:new 0 0 512.001 512.001;" xml:space="preserve">
<path style="fill:#415E72;" d="M366.984,503.565h19.768c15.581,0,28.211-12.631,28.211-28.211V36.645
	c0-15.581-12.63-28.211-28.211-28.211H125.004c-15.581,0-28.211,12.631-28.211,28.211v438.708c0,15.581,12.631,28.211,28.211,28.211
	h209.927"/>
<polyline style="fill:#CFDCE5;" points="133.436,152.953 133.436,423.129 378.319,423.129 378.319,88.871 133.436,88.871 
	133.436,122.588 "/>
<polygon style="fill:#FF6F52;" points="255.877,160.266 174.464,256 213.642,256 213.642,351.734 298.114,351.734 298.114,256 
	337.291,256 "/>
<path d="M386.876,512h-19.769c-4.659,0-8.435-3.777-8.435-8.435c0-4.659,3.777-8.435,8.435-8.435h19.768
	c10.904,0,19.776-8.872,19.776-19.776V36.646c0-10.904-8.872-19.776-19.776-19.776H125.126c-10.904,0-19.776,8.872-19.776,19.776
	v438.708c0,10.904,8.872,19.776,19.776,19.776h209.927c4.659,0,8.435,3.777,8.435,8.435c0,4.659-3.777,8.435-8.435,8.435H125.126
	c-20.207,0-36.646-16.44-36.646-36.646V36.646C88.481,16.44,104.921,0,125.126,0h261.748c20.207,0,36.646,16.44,36.646,36.646
	v438.708C423.521,495.56,407.081,512,386.876,512z"/>
<path d="M378.443,431.563H133.559c-4.659,0-8.435-3.777-8.435-8.435V152.953c0-4.659,3.777-8.435,8.435-8.435
	s8.435,3.777,8.435,8.435v261.739h228.013V97.307H141.995v25.281c0,4.659-3.777,8.435-8.435,8.435s-8.435-3.777-8.435-8.435V88.871
	c0-4.659,3.777-8.435,8.435-8.435h244.883c4.659,0,8.435,3.777,8.435,8.435v334.256
	C386.878,427.787,383.101,431.563,378.443,431.563z"/>
<path d="M303.237,55.109h-94.471c-4.659,0-8.435-3.777-8.435-8.435s3.777-8.435,8.435-8.435h94.471c4.659,0,8.435,3.777,8.435,8.435
	S307.895,55.109,303.237,55.109z"/>
<path d="M298.237,360.17h-84.471c-4.659,0-8.435-3.777-8.435-8.435v-87.299h-30.742c-3.289,0-6.277-1.911-7.657-4.896
	c-1.38-2.985-0.9-6.499,1.23-9.004l81.413-95.734c1.603-1.884,3.952-2.97,6.425-2.97l0,0c2.474,0,4.824,1.086,6.425,2.97
	l24.076,28.311c3.019,3.55,2.588,8.873-0.961,11.89c-3.548,3.018-8.874,2.588-11.89-0.962l-17.649-20.754l-63.167,74.278h20.931
	c4.659,0,8.435,3.777,8.435,8.435v87.299h67.601V256c0-4.659,3.777-8.435,8.435-8.435h20.931l-29.312-34.468
	c-3.019-3.55-2.588-8.873,0.961-11.89c3.55-3.018,8.872-2.587,11.89,0.961l41.132,48.367c2.13,2.506,2.61,6.019,1.23,9.004
	c-1.38,2.985-4.368,4.896-7.657,4.896H306.67v87.299C306.673,356.393,302.896,360.17,298.237,360.17z"/>
<circle cx="256.008" cy="465.046" r="8.435"/>
<g>
</g>
<g>
</g>
<g>
</g>
<g>
</g>
<g>
</g>
<g>
</g>
<g>
</g>
<g>
</g>
<g>
</g>
<g>
</g>
<g>
</g>
<g>
</g>
<g>
</g>
<g>
</g>
<g>
</g>
</svg>
